<?xml version="1.0" encoding="iso-8859-1"?>
<!-- Generator: Adobe Illustrator 19.0.0, SVG Export Plug-In . SVG Version: 6.00 Build 0)  -->
<svg version="1.1" id="Layer_1" xmlns="http://www.w3.org/2000/svg" xmlns:xlink="http://www.w3.org/1999/xlink" x="0px" y="0px"
	 viewBox="0 0 512 512" style="enable-background:new 0 0 512 512;" xml:space="preserve">
<g>
	<g>
		<path d="M451.353,145.571c-2.967-17.296-11.054-33.169-23.252-45.378c-14.543-14.556-33.572-22.572-53.585-22.572
			c-6.34,0-16.77,1.363-27.811,2.807c-4.346,0.568-10.012,1.309-14.475,1.794C314.37,56.523,286.487,41.447,256,41.447
			c-30.486,0-58.37,15.076-76.231,40.774c-4.463-0.485-10.128-1.226-14.474-1.794c-11.041-1.444-21.471-2.807-27.811-2.807
			c-20.013,0-39.042,8.016-53.585,22.572C71.7,112.403,63.612,128.277,60.646,145.57C26.966,147.068,0,176.521,0,212.51
			c0,16.162,5.348,31.394,15.173,43.51c1.554,18.466,10.567,35.141,25.065,46.148c14.451,10.973,32.682,14.852,50.014,10.647
			l17.572-4.264c8.094,43.685,11.187,118.121,8.648,129.94c-0.862,4.012-0.043,8.201,2.267,11.593
			c2.309,3.392,5.906,5.688,9.955,6.357l43.995,7.265c27.641,4.564,55.476,6.847,83.311,6.847s55.67-2.282,83.31-6.847l43.996-7.265
			c4.049-0.669,7.646-2.966,9.955-6.357c2.31-3.392,3.129-7.581,2.267-11.593c-2.538-11.819,0.555-86.255,8.648-129.94l17.572,4.264
			c4.583,1.112,9.226,1.658,13.847,1.658c12.858,0,25.536-4.234,36.167-12.306c14.499-11.009,23.515-27.688,25.066-46.148
			C506.651,243.905,512,228.672,512,212.51C512,176.521,485.033,147.068,451.353,145.571z M367.185,363.939
			c-1.728,21.712-2.901,47.646-2.387,65.152l-30.377,5.016c-52.036,8.593-104.805,8.593-156.844,0l-30.376-5.016
			c0.515-17.506-0.659-43.44-2.387-65.152c-1.585-19.915-4.885-52.474-10.796-75.792c80.039-21.199,163.926-21.198,243.963,0
			C372.07,311.465,368.77,344.024,367.185,363.939z M471.312,239.619c-2.72,2.799-4.24,6.548-4.24,10.451
			c0,0.506-0.008,1.011-0.025,1.525c-0.365,10.755-5.259,20.479-13.426,26.68c-7.341,5.572-16.146,7.486-24.798,5.387l-16.909-4.103
			c0.3-2.714-0.132-5.487-1.316-8.012c-1.832-3.908-5.259-6.838-9.404-8.04l-4.145-1.202c-1.74-0.504-3.485-0.98-5.229-1.466
			c6.107-3.841,12.641-6.983,18.766-8.105c8.148-1.492,13.545-9.308,12.053-17.457c-1.492-8.148-9.309-13.546-17.457-12.052
			c-20.893,3.826-40.375,19.125-50.848,28.683c-6.778-1.343-13.575-2.54-20.387-3.603c-0.68-33.049,34.93-60.731,35.271-60.993
			c6.602-5.005,7.896-14.414,2.891-21.015c-5.005-6.603-14.414-7.897-21.016-2.891c-1.961,1.487-45.381,34.959-47.104,81.142
			c-11.009-1.05-22.041-1.74-33.082-2.066c0.058-0.539,0.093-1.084,0.093-1.638v-87.157c0-8.284-6.716-15-15-15s-15,6.716-15,15
			v87.157c0,0.554,0.035,1.099,0.093,1.638c-11.041,0.326-22.073,1.016-33.082,2.066c-1.723-46.182-45.143-79.654-47.104-81.142
			c-6.604-5.005-16.011-3.709-21.016,2.891c-5.005,6.602-3.711,16.01,2.891,21.015c0.37,0.28,35.917,28.191,35.27,60.993
			c-6.812,1.063-13.608,2.26-20.385,3.603c-10.474-9.558-29.956-24.857-50.849-28.683c-8.145-1.49-15.964,3.903-17.457,12.052
			c-1.492,8.149,3.904,15.964,12.053,17.457c6.125,1.122,12.66,4.265,18.767,8.105c-1.744,0.485-3.49,0.962-5.23,1.466l-4.143,1.201
			c-4.146,1.202-7.572,4.132-9.404,8.04c-1.183,2.524-1.615,5.298-1.316,8.012l-16.909,4.103c-8.65,2.099-17.458,0.187-24.798-5.387
			c-8.167-6.2-13.061-15.925-13.426-26.69c-0.018-0.503-0.025-1.008-0.025-1.514c0-3.903-1.521-7.651-4.24-10.451
			C33.796,232.523,30,222.895,30,212.51c0-20.402,14.955-37,33.337-37c1.024,0,2.069,0.055,3.101,0.162
			c6.783,0.706,13.479-1.905,17.914-6.987c0.025-0.029,0.051-0.058,0.076-0.087c2.964-3.392,4.775-7.753,5.102-12.289
			c1.948-27.303,23.013-48.69,47.955-48.69c4.388,0,15.219,1.416,23.922,2.554c16.173,2.115,23.237,2.924,28.011,2.392
			c4.777-0.532,9.01-3.32,11.384-7.499c11.96-21.052,32.596-33.62,55.199-33.62c22.604,0,43.239,12.568,55.198,33.619
			c2.374,4.179,6.606,6.967,11.384,7.499c4.778,0.531,11.838-0.277,28.013-2.392c8.702-1.138,19.533-2.554,23.921-2.554
			c24.942,0,46.007,21.387,47.956,48.698c0.325,4.527,2.137,8.888,5.101,12.28c0.015,0.017,0.029,0.034,0.045,0.051
			c0.012,0.014,0.025,0.03,0.04,0.046c4.434,5.077,11.129,7.687,17.901,6.978c1.035-0.108,2.08-0.163,3.104-0.163
			c18.382,0,33.337,16.598,33.337,37C482,222.895,478.204,232.523,471.312,239.619z"/>
	</g>
</g>
<g>
</g>
<g>
</g>
<g>
</g>
<g>
</g>
<g>
</g>
<g>
</g>
<g>
</g>
<g>
</g>
<g>
</g>
<g>
</g>
<g>
</g>
<g>
</g>
<g>
</g>
<g>
</g>
<g>
</g>
</svg>
