<svg id="Capa_1" enable-background="new 0 0 512 512" height="512" viewBox="0 0 512 512" width="512" xmlns="http://www.w3.org/2000/svg"><g><path d="m498.832 122.079-108.911-108.911c-18.751-18.752-49.631-17.28-66.517 3.16l-95.97 116.174c-14.857 17.985-13.622 43.987 2.874 60.482l33.746 33.746-81.237 81.237c-14.405-6.556-31.686-4.624-44.57 6.139l-118.113 98.67c-25.298 21.133-27.008 59.489-3.706 82.793 23.327 23.326 61.68 21.569 82.793-3.705l98.67-118.112c10.764-12.884 12.696-30.165 6.14-44.57l81.237-81.237 33.746 33.746c16.503 16.504 42.505 17.724 60.483 2.874l116.174-95.97c20.402-16.852 21.947-47.731 3.161-66.516zm-323.964 232.439-98.671 118.112c-9.891 11.84-27.704 12.575-38.554 1.725-10.886-10.885-10.075-28.696 1.725-38.554l118.113-98.671c4.936-4.125 12.091-3.805 16.641.745 4.551 4.551 4.871 11.705.746 16.643zm301.696-189.053-116.174 95.97c-5.995 4.952-14.662 4.54-20.161-.958l-88.707-88.707c-5.498-5.498-5.91-14.166-.958-20.161l95.97-116.174c5.642-6.829 15.905-7.32 22.173-1.054l108.911 108.91c6.246 6.249 5.8 16.512-1.054 22.174z"/><path d="m370.126 99.445c-5.858-5.858-15.355-5.858-21.214 0l-42.429 42.429c-5.858 5.858-5.858 15.356 0 21.214s15.356 5.858 21.214 0l42.429-42.429c5.859-5.858 5.859-15.356 0-21.214z"/><path d="m391.341 141.874-42.429 42.429c-5.858 5.858-5.858 15.356 0 21.214 5.857 5.858 15.356 5.859 21.214 0l42.429-42.429c5.858-5.858 5.858-15.356 0-21.214-5.858-5.859-15.356-5.859-21.214 0z"/></g></svg>