<svg height="512pt" viewBox="0 -33 512 512" width="512pt" xmlns="http://www.w3.org/2000/svg"><path d="m496.921875 358.222656h-22.304687c22.960937-21.023437 37.382812-51.222656 37.382812-84.734375 0-56.96875-41.671875-104.40625-96.148438-113.363281.636719-.660156 1.28125-1.324219 1.945313-1.988281l30.914063-30.914063c5.832031 2.746094 12.25 4.191406 18.886718 4.191406 11.859375 0 23.011719-4.617187 31.398438-13.003906 17.308594-17.3125 17.308594-45.484375 0-62.796875-7.859375-7.855469-18.203125-12.5-29.324219-13.203125-.660156-10.675781-5.101563-21.21875-13.308594-29.425781-17.3125-17.3125-45.480469-17.3125-62.792969 0-8.386718 8.386719-13.007812 19.535156-13.007812 31.394531 0 6.640625 1.449219 13.054688 4.191406 18.890625l-30.910156 30.914063s-.003906.003906-.003906.003906c-2.894532 2.890625-5.789063 5.511719-8.691406 7.90625-25.953126-18.210938-57.34375-28.550781-90.421876-28.550781-59.117187 0-112.910156 33.058593-139.828124 85.058593-.003907 0-.007813 0-.011719 0-63.347657 0-114.886719 51.539063-114.886719 114.886719 0 33.511719 14.421875 63.714844 37.382812 84.734375h-22.296874c-8.328126 0-15.0781255 6.75-15.0781255 15.078125 0 40.578125 33.0117185 73.589844 73.5859375 73.589844h364.816406c40.578125 0 73.589844-33.011719 73.589844-73.589844 0-4-1.589844-7.832031-4.417969-10.660156s-6.660156-4.417969-10.660156-4.417969zm-58.511719 58.507813h-364.816406c-18.648438 0-34.589844-11.8125-40.730469-28.351563h446.28125c-6.140625 16.539063-22.082031 28.351563-40.734375 28.351563zm-408.253906-143.242188c0-46.71875 38.011719-84.730469 84.734375-84.730469 2.589844 0 5.253906.125 7.921875.371094 6.476562.605469 12.609375-3.023437 15.210938-8.984375 20.25-46.441406 66.0625-76.445312 116.703124-76.445312 21.953126 0 42.984376 5.640625 61.425782 15.800781-10.074219 4.253906-20.304688 7.183594-30.792969 10.191406-25.003906 7.160156-50.851563 14.566406-75.84375 39.558594-17.789063 17.789062-27.589844 41.445312-27.589844 66.605469 0 25.121093 9.773438 48.742187 27.511719 66.523437.027344.027344.054688.058594.082031.085938 17.792969 17.789062 41.445313 27.589844 66.605469 27.589844s48.816406-9.800782 66.605469-27.589844c24.992187-24.992188 32.398437-50.84375 39.558593-75.84375 3.710938-12.941406 7.3125-25.496094 13.414063-37.839844.46875-.007812.941406-.023438 1.40625-.023438 46.722656 0 84.734375 38.011719 84.734375 84.734376 0 46.71875-38.011719 84.730468-84.734375 84.730468h-282.21875c-46.722656 0-84.734375-38.011718-84.734375-84.734375zm384.738281-219.03125c-2.691406-2.691406-4.171875-6.269531-4.171875-10.074219 0-3.804687 1.484375-7.382812 4.171875-10.074218 5.554688-5.550782 14.589844-5.554688 20.148438 0 5.671875 5.675781 5.945312 15.359375.578125 20.726562-2.945313 2.945313-4.417969 6.804688-4.417969 10.660156 0 3.859376 1.472656 7.71875 4.417969 10.664063 5.886718 5.886719 15.433594 5.886719 21.324218 0 2.578126-2.582031 6.160157-3.957031 10.078126-3.886719 4.003906.078125 7.886718 1.703125 10.648437 4.464844 2.6875 2.691406 4.171875 6.269531 4.171875 10.074219 0 3.804687-1.484375 7.382812-4.171875 10.074219-2.691406 2.691406-6.269531 4.171874-10.074219 4.171874-3.804687 0-7.382812-1.484374-10.074218-4.171874-5.886719-5.890626-15.433594-5.890626-21.324219 0l-29.066407 29.066406-21.304687-21.308594 29.066406-29.066406c2.828125-2.824219 4.417969-6.660156 4.417969-10.660156s-1.589844-7.835938-4.417969-10.660157zm-50.910156 71.191407 22.347656 22.347656c-19.8125 24.175781-26.78125 48.511718-33.03125 70.324218-6.664062 23.257813-12.417969 43.347657-31.890625 62.820313-12.09375 12.09375-28.175781 18.757813-45.28125 18.757813-17.078125 0-33.132812-6.640626-45.21875-18.695313-.023437-.023437-.046875-.046875-.066406-.066406-12.097656-12.097657-18.757812-28.175781-18.757812-45.28125s6.660156-33.1875 18.757812-45.28125c19.472656-19.472657 39.558594-25.226563 62.820312-31.890625 21.8125-6.253906 46.144532-13.222656 70.320313-33.035156zm0 0"/></svg>