<svg id="Capa_1" enable-background="new 0 0 512 512" height="512" viewBox="0 0 512 512" width="512" xmlns="http://www.w3.org/2000/svg"><g><path d="m437 106h-362c-41.355 0-75 33.645-75 75 0 25.13 16.939 46.376 40 52.921v157.079c0 8.284 6.716 15 15 15h402c8.284 0 15-6.716 15-15v-157.079c23.061-6.545 40-27.791 40-52.921 0-41.355-33.645-75-75-75zm-407 75c0-24.813 20.187-45 45-45h142.041c-9.438 12.544-15.041 28.129-15.041 45 0 8.999 2.182 17.494 6.029 25h-153.029c-13.785 0-25-11.215-25-25zm212 195h-172v-140h172zm215-170c-8.284 0-15 6.716-15 15v155h-170v-155c0-8.284-6.716-15-15-15-13.785 0-25-11.215-25-25 0-24.813 20.187-45 45-45h160c24.813 0 45 20.187 45 45 0 13.785-11.215 25-25 25z"/><circle cx="312" cy="329" r="15"/><circle cx="402" cy="329" r="15"/><circle cx="357" cy="256" r="15"/><circle cx="312" cy="183" r="15"/><circle cx="402" cy="183" r="15"/></g></svg>